<?xml version="1.0" encoding="UTF-8"?><svg id="a" xmlns="http://www.w3.org/2000/svg" width="254.36mm" height="159.78mm" viewBox="0 0 721.02 452.91"><path d="m59.85,403.82c-25.65,0-42.94-16.8-38.28-43.2,5.69-32.25,38.41-57.9,70.06-57.9,25.65,0,42.79,16.8,38.13,43.2-5.69,32.25-38.26,57.9-69.91,57.9Zm24.92-72.45c-13.65,0-28.24,14.7-30.57,27.9-1.61,9.15,2.84,16.2,12.29,16.2,13.65,0,28.24-14.7,30.57-27.9,1.61-9.15-2.84-16.2-12.29-16.2Z" fill="#2f3a7d" stroke="#232422" stroke-miterlimit="10"/><path d="m175.68,401.12l-9.43-33.3h-3.6l-11.72,33.3h-30.45l33.67-95.7h40.5c16.2,0,26.88,10.05,23.91,26.85-1.93,10.95-11.07,22.8-21.97,27.6l13.73,41.25h-34.65Zm6.76-70.65h-6.6l-4.83,13.8h6.15c4.65,0,9.93-3.6,10.81-8.55.63-3.6-2.37-5.25-5.52-5.25Z" fill="#2f3a7d" stroke="#232422" stroke-miterlimit="10"/><path d="m248.28,401.12h-36.3l33.67-95.7h35.25c24.3,0,40.02,16.35,35.62,41.25-5.82,33-36.75,54.45-68.25,54.45Zm21.95-70.05h-3.15l-15.65,44.55h3.15c15.15,0,27.56-14.25,30.07-28.5,1.88-10.65-4.22-16.05-14.42-16.05Z" fill="#2f3a7d" stroke="#232422" stroke-miterlimit="10"/><path d="m340.83,401.12h-31.95l33.67-95.7h31.95l-33.67,95.7Z" fill="#2f3a7d" stroke="#232422" stroke-miterlimit="10"/><path d="m440.93,379.22l1.74,6.74c-.78.53-2.36,1-4.75,1.39-2.39.39-5.46.73-9.23,1.02-5.04,4.19-9.93,7.67-14.7,10.45-4.76,2.78-9.36,4.83-13.79,6.15-1.03.29-2.21.61-3.54.95-.78,0-1.61-.16-2.48-.48-.87-.32-1.82-.77-2.84-1.35-1.04-.73-1.82-1.44-2.34-2.12-.51-.69-.71-1.39-.58-2.12.26-1.46,1.21-2.88,2.87-4.25,1.66-1.37,3.96-2.66,6.91-3.88,5.92-2.54,11.76-5.1,17.54-7.69.78,0,1.31.16,1.6.48.29.32.39.72.3,1.21-.23,1.32-1.37,2.43-3.41,3.33-2.04.9-3.09,1.55-3.16,1.94.25.49.5.73.75.73.63,0,2.21-.95,4.72-2.86,2.51-1.9,3.78-3.1,3.82-3.59l-.07-1.69.2-.29c1.47-1.12,2.58-2.12,3.35-3,.76-.88,1.19-1.59,1.29-2.12.21-1.22-.11-2.86-.97-4.91-.86-2.05-2.26-4.52-4.19-7.4-1.46-2.24-2.96-4.26-4.5-6.04-1.54-1.78-3.05-3.36-4.51-4.72-.58-.59-1.07-1.16-1.46-1.72-.39-.56-.69-1.09-.89-1.58-.37-.98-.65-1.78-.86-2.42-.21-.63-.41-1.05-.62-1.25-.19-.29-.46-.65-.8-1.06-.34-.41-.76-.89-1.25-1.43-.84-1.07-1.37-2.56-1.59-4.47-.23-1.9-.09-4.27.41-7.1.33-1.85.9-3.65,1.72-5.38.82-1.73,1.83-3.28,3.05-4.65.2-.29.4-.63.62-1.02.22-.39.46-.83.75-1.32,1.53-2.29,3.87-4.77,7.02-7.43,3.15-2.66,7.17-5.48,12.04-8.46.64-.29,1.41-.68,2.33-1.17.92-.49,1.96-1.12,3.12-1.9.67-.49,1.4-.93,2.17-1.32.78-.39,1.68-.76,2.72-1.1,1.41-.54,3-1.12,4.78-1.76,2.67-1.27,4.86-2.2,6.57-2.78,1.71-.59,2.99-.88,3.82-.88,1.61,0,2.73.49,3.37,1.46.63.98.79,2.39.46,4.25-.36,2.05-.82,3.72-1.36,5.02-.55,1.29-1.13,2.16-1.74,2.6-6.57,4.59-11.82,8.04-15.74,10.36-3.92,2.32-6.59,3.48-8.01,3.48-.68,0-1.19-.2-1.51-.59-.32-.39-.41-.98-.28-1.76.23-1.32,1.59-2.77,4.06-4.36,2.48-1.59,3.76-2.79,3.86-3.63l-.58-.44c-.25,0-.54.07-.88.22-.34.15-.71.34-1.09.59-4.91,3.47-8.69,6.58-11.35,9.34-2.66,2.76-4.17,5.16-4.53,7.22-.28,1.61-.29,3.25-.02,4.91.27,1.66.79,3.37,1.55,5.13.56,1.22,1.43,2.77,2.59,4.65,1.16,1.88,2.65,4.14,4.48,6.78,2.53,3.66,4.47,6.49,5.83,8.5,1.36,2,2.12,3.05,2.3,3.15.75,1.27,1.36,2.54,1.82,3.81.46,1.27.71,2.49.75,3.66.08.93.05,2.08-.09,3.44-.14,1.37-.39,3.03-.73,4.98-.2,1.15-.15,1.81.16,1.98.31.17.86.26,1.64.26.29,0,.54-.06.73-.18.19-.12.4-.28.63-.48Z" fill="#821f1b"/><path d="m440.84,379.29c.77-1.03,1.71-2.06,2.82-3.11s2.48-2.14,4.09-3.26c.32-.98.64-1.94.95-2.89s.58-1.92.8-2.89c.27-.68.64-1.49,1.12-2.42.48-.93,1.01-1.93,1.59-3,.63-1.07,1.46-2.42,2.5-4.03,1.04-1.61,2.35-3.42,3.92-5.42,1.22-1.12,2.51-2.35,3.88-3.7,1.36-1.34,2.72-2.7,4.09-4.06.61-.44,1.27-.85,1.98-1.25.7-.39,1.42-.83,2.14-1.32.62-.19,1.31-.37,2.07-.51.76-.15,1.58-.22,2.46-.22,1.22,0,2.19.12,2.9.37.71.25,1.26.66,1.65,1.25.27.39.5.98.68,1.76.18.78.32,1.73.41,2.86-.03.98-.04,2.05-.06,3.22.05-.29-.06-.17-.32.37-.27.54-.67,1.39-1.22,2.56l-1.07,2.34c-1.1,2.34-3.11,5.05-6.05,8.13-2.94,3.08-6.78,6.59-11.53,10.55-.4.34-.77.77-1.1,1.28-.34.51-.55,1.06-.66,1.65-.18,1.03-.16,1.93.07,2.71.23.78.65,1.37,1.26,1.76.34.29.91.59,1.71.88.8.29,1.77.56,2.9.81,1.93-.15,3.72-.46,5.37-.95,1.65-.49,3.14-1.07,4.49-1.76.27-.15.7-.35,1.28-.62.58-.27,1.18-.62,1.8-1.06.38,1.42.72,2.69,1.01,3.81.29,1.12.51,2.1.66,2.93-3.27,2.73-6.16,4.8-8.67,6.19-2.52,1.39-4.73,2.09-6.63,2.09-.87.49-1.82.84-2.86,1.06-1.04.22-2.24.33-3.61.33-1.81,0-3.36-.27-4.66-.8-1.3-.54-2.32-1.32-3.07-2.34-.4-.49-.76-1.21-1.08-2.16s-.63-2.09-.94-3.41c-.25-1.07-.53-1.87-.83-2.38-.3-.51-.7-.77-1.18-.77-.39,0-.86.18-1.42.55-.55.37-1.19.92-1.9,1.65-.07-.73-.25-1.64-.55-2.71-.3-1.07-.7-2.42-1.19-4.03Zm27.63-23.8c-1.07,0-2.76,1.4-5.06,4.21-2.3,2.81-3.57,4.87-3.8,6.19-.05.29-.03.5.07.62.1.12.34.18.74.18.54,0,1.03-.28,1.47-.84.44-.56.85-1.09,1.23-1.57.62-.49,1.24-1.01,1.85-1.57.61-.56,1.21-1.11,1.79-1.65.71-.68,1.27-1.37,1.68-2.05.41-.68.68-1.37.8-2.05.08-.44.05-.79-.07-1.06-.12-.27-.36-.4-.7-.4Z" fill="#821f1b"/><path d="m477.53,379.29c.96-1.03,1.93-2.1,2.91-3.22,4.08-2.93,7.5-5.75,10.24-8.46,2.75-2.71,4.84-5.24,6.28-7.58l-.11-3.52c.85-1.22,2.68-2.66,5.49-4.32,2.81-1.66,4.99-2.49,6.55-2.49,1.66,0,2.98.49,3.95,1.46.97.98,1.91,2,2.79,3.08.48.34.82.61,1.03.81,1.69,1.46,2.8,3.49,3.32,6.08.52,2.59.45,5.74-.2,9.45-.34,1.95-1.6,4.75-3.75,8.39s-3.4,6.38-3.72,8.24c-.04.25,0,.44.15.59.14.15.36.22.66.22.63,0,1.44-.28,2.42-.84.98-.56,2.07-1.33,3.26-2.31,3.04-2.54,4.84-3.94,5.43-4.21.58-.27,1.32-.72,2.22-1.35.22.98.5,2.03.84,3.15.34,1.12.64,2.32.91,3.59-.51.39-1.09.85-1.75,1.39-.66.54-1.44,1.15-2.34,1.83-1.88,1.22-4.3,2.7-7.26,4.43-2.97,1.73-6.5,3.72-10.61,5.97-1.09.63-2.3,1.15-3.64,1.54-2.05,0-3.54-.3-4.45-.92-.92-.61-1.26-1.6-1.01-2.97.09-.54.31-1.16.66-1.87.34-.71.78-1.48,1.32-2.31.4-.63.84-1.28,1.29-1.94.46-.66.87-1.33,1.23-2.02,1.62-3.08,2.94-5.93,3.96-8.57,1.03-2.64,1.72-5,2.09-7.1.46-2.59.4-4.56-.16-5.93-.56-1.37-1.64-2.15-3.21-2.34-1.18.59-2.5,1.42-3.96,2.49-1.46,1.08-2.99,2.42-4.59,4.03-1.73,1.76-3.25,3.2-4.57,4.32-1.32,1.12-2.38,1.88-3.18,2.27-.57.73-1.42,1.56-2.56,2.49-1.14.93-2.61,1.93-4.41,3-.13.2-.33.49-.59.88-.26.39-.66.83-1.18,1.32-.19-1.12-.44-2.23-.73-3.33-.29-1.1-.63-2.23-1.01-3.41Z" fill="#821f1b"/><path d="m526.23,379.29c.26-.39.83-1.06,1.71-2.01.88-.95,2.1-2.14,3.67-3.55,1.61-1.37,2.97-2.65,4.08-3.85,1.11-1.2,1.95-2.26,2.5-3.19.78-1.12,1.73-2.54,2.84-4.25,1.11-1.71,2.34-3.69,3.72-5.93.19-.24,1.38-1.04,3.57-2.38,2.19-1.34,3.53-2.01,4.02-2.01.63,0,1.03.45,1.19,1.35.16.9.07,2.28-.25,4.14-.48,2.73-.92,5.02-1.32,6.85s-.84,3.31-1.33,4.43c.05.25.1.54.14.88.04.34.09.73.16,1.17-.19.49-.4,1-.64,1.54-1.02,5.81-1.57,10.14-1.63,13-.06,2.86.27,4.29,1,4.29.93,0,2.46-1.23,4.61-3.7,2.14-2.46,4.87-6.19,8.19-11.17,3.29-4.83,5.85-8.8,7.67-11.9,1.82-3.1,2.96-5.43,3.43-7,.92-2.73,2.01-4.8,3.25-6.19,1.25-1.39,2.72-2.09,4.43-2.09.49,0,.81.13.95.4.15.27.17.67.08,1.21-.34,1.95-.95,3.94-1.82,5.97-.87,2.03-2.02,4.04-3.45,6.04-.23,1.32-.8,2.81-1.7,4.47-.9,1.66-2.17,3.49-3.79,5.49-.67,1.32-1.24,2.61-1.71,3.88-.21.64-1.72,2.88-4.52,6.74-2.8,3.86-4.56,6.1-5.25,6.74-.21,1.17-1.02,2.58-2.43,4.21-1.41,1.64-3.47,3.5-6.19,5.6-.6.64-1.22,1.25-1.86,1.83-.64.59-1.26,1.17-1.85,1.76-.66.68-1.35,1.21-2.07,1.57-.72.37-1.53.55-2.41.55-2.64,0-4.46-1-5.48-3-1.01-2-1.17-5-.46-9.01.28-.73.49-1.37.63-1.9-.14-.59-.25-1.36-.33-2.31-.08-.95-.06-2.01.05-3.19.28-1.56.49-2.83.64-3.81.15-.98.18-1.64.09-1.98l.81-1.69-.66-.44c-.37.15-1.42.98-3.15,2.49-1.73,1.52-4.2,3.74-7.4,6.67-.15-1.07-.38-2.15-.68-3.22-.3-1.07-.65-2.25-1.06-3.52Z" fill="#821f1b"/><path d="m574.5,379.29l.53-.51.35-.73c1.64-1.81,4.37-4.16,8.2-7.07,3.83-2.9,6.54-5.26,8.13-7.07.62-.78,1.29-1.34,1.98-1.68s1.36-.51,2-.51c1.71,0,3.07.43,4.09,1.28,1.02.85,1.58,2.14,1.67,3.85.07,1.51.12,3.04.15,4.58.02,1.54,0,3.09-.09,4.65.17.98.32,2.45.46,4.43.14,1.98.3,3.11.5,3.41.16.49.46.84.91,1.06.45.22,1.04.33,1.77.33.88,0,1.81-.16,2.79-.48.98-.32,2.03-.87,3.15-1.65.84-.63,1.73-1.28,2.65-1.94.92-.66,1.83-1.3,2.72-1.94l1.74,6.74c-.92.78-2.11,1.67-3.58,2.67-1.47,1-3.23,2.16-5.27,3.48-2.26,1.46-4.16,2.55-5.7,3.26-1.54.71-2.68,1.06-3.41,1.06-4.44,0-7.23-.51-8.37-1.54-1.14-1.03-2.1-3.88-2.88-8.57-.13-.39-.34-.85-.63-1.39-.3-.54-.62-1.17-.98-1.9-.39-1.12-.75-1.96-1.09-2.53-.34-.56-.66-.84-.95-.84-.78,0-1.92.52-3.43,1.58s-3.39,2.62-5.67,4.72c-.13-.63-.3-1.39-.52-2.27-.21-.88-.41-1.9-.59-3.08-.05-.29-.12-.56-.22-.81-.1-.24-.24-.44-.41-.59Zm40.8-57.79c1.22,0,2.07.25,2.54.73.47.49.63,1.2.47,2.12-.53,1.37-.98,2.52-1.34,3.44-.8,1.76-1.48,3.2-2.04,4.32-.56,1.12-.99,1.93-1.27,2.42-.63,1.08-1.39,2.02-2.29,2.82-.9.81-1.94,1.53-3.13,2.16-1.26.78-2.3,1.33-3.11,1.65-.81.32-1.36.45-1.65.4-.81-.1-1.59-.18-2.33-.26-.75-.07-1.48-.11-2.21-.11-.58-.34-.96-1-1.15-1.98-.19-.98-.15-2.29.15-3.95.26-1.46,1.47-3.31,3.65-5.53,2.17-2.22,3.96-3.41,5.35-3.55,1.01-1.02,2.19-2.2,3.55-3.52.55-.34,1.23-.62,2.05-.84.82-.22,1.74-.33,2.77-.33Z" fill="#821f1b"/><path d="m616.25,379.29l.76-.59c.14-.54.6-1.17,1.36-1.9.76-.73,1.82-1.59,3.16-2.56.83-.54,1.69-1.05,2.58-1.54.89-.49,1.75-1.03,2.59-1.61,3.54-2.64,6.97-5.18,10.28-7.62,1.92-1.46,3.8-2.72,5.65-3.77,1.84-1.05,3.56-1.89,5.13-2.53,1.26-1.32,3.41-2.66,6.46-4.03,3.05-1.37,5.45-2.05,7.21-2.05.68,0,1.2.2,1.55.59.34.39.51.88.51,1.46l-.71,4.03c-.25,1.42-.87,2.67-1.87,3.77-1,1.1-2.39,2.11-4.16,3.04-1.16.49-2.33,1.03-3.51,1.61-1.18.59-2.35,1.12-3.51,1.61-.48.49-1.68,1.4-3.6,2.75-1.92,1.34-4.52,3.14-7.8,5.38-1.5,1.02-2.76,1.94-3.78,2.75-1.02.8-1.75,1.45-2.17,1.94-.65.93-1.21,1.95-1.68,3.08-.47,1.12-.83,2.42-1.09,3.88-.2,1.12-.2,2.09,0,2.89.2.81.6,1.45,1.2,1.94.43.34,1.04.68,1.83,1.03.79.34,1.79.68,3,1.02.78-.29,1.8-.57,3.04-.84,1.24-.27,2.64-.62,4.18-1.06,1.83-.98,3.71-2,5.63-3.08,1.92-1.07,3.84-2.17,5.75-3.3.27-.15.6-.31,1-.48.4-.17.82-.43,1.27-.77.6-.63,1.4-1.37,2.4-2.2,1-.83,2.21-1.78,3.62-2.86,1.2,4.25,1.78,6.49,1.74,6.74-2.06,1.46-4.16,2.97-6.29,4.5-2.13,1.54-4.47,2.8-7.04,3.77-.89.64-1.66,1.22-2.29,1.76-2.87,2.44-6.04,4.28-9.51,5.53-3.47,1.25-7.28,1.87-11.43,1.87-.93,0-1.75-.07-2.45-.22-.71-.15-1.28-.34-1.73-.59-1.29-.98-2.39-1.83-3.28-2.56-.94-.78-1.71-1.53-2.32-2.23-.61-.71-1.03-1.38-1.26-2.01-.32-.68-.48-1.51-.48-2.49,0-.98.13-2.17.38-3.59.07-.39.3-1.03.7-1.9.4-.88.63-1.49.69-1.83-.15-1.07-.37-2.17-.66-3.3-.29-1.12-.65-2.27-1.08-3.44Z" fill="#821f1b"/><path d="m662.46,379.29c.77-1.03,1.71-2.06,2.82-3.11,1.11-1.05,2.48-2.14,4.09-3.26.32-.98.64-1.94.95-2.89s.58-1.92.8-2.89c.27-.68.64-1.49,1.12-2.42.48-.93,1.01-1.93,1.59-3,.63-1.07,1.46-2.42,2.5-4.03,1.04-1.61,2.35-3.42,3.92-5.42,1.22-1.12,2.51-2.35,3.88-3.7,1.36-1.34,2.72-2.7,4.09-4.06.61-.44,1.27-.85,1.98-1.25.7-.39,1.42-.83,2.14-1.32.62-.19,1.31-.37,2.07-.51.76-.15,1.58-.22,2.46-.22,1.22,0,2.19.12,2.9.37.71.25,1.26.66,1.65,1.25.27.39.5.98.68,1.76.18.78.32,1.73.41,2.86-.03.98-.04,2.05-.06,3.22.05-.29-.06-.17-.32.37-.27.54-.67,1.39-1.22,2.56l-1.07,2.34c-1.1,2.34-3.11,5.05-6.05,8.13-2.94,3.08-6.78,6.59-11.53,10.55-.4.34-.77.77-1.1,1.28-.34.51-.55,1.06-.66,1.65-.18,1.03-.16,1.93.07,2.71.23.78.65,1.37,1.26,1.76.34.29.91.59,1.71.88.8.29,1.77.56,2.9.81,1.93-.15,3.72-.46,5.37-.95,1.65-.49,3.14-1.07,4.49-1.76.27-.15.7-.35,1.28-.62.58-.27,1.18-.62,1.8-1.06.38,1.42.72,2.69,1.01,3.81.29,1.12.51,2.1.66,2.93-3.27,2.73-6.16,4.8-8.67,6.19s-4.73,2.09-6.63,2.09c-.87.49-1.82.84-2.86,1.06-1.04.22-2.24.33-3.61.33-1.81,0-3.36-.27-4.66-.8-1.3-.54-2.32-1.32-3.07-2.34-.4-.49-.76-1.21-1.08-2.16-.32-.95-.63-2.09-.94-3.41-.25-1.07-.52-1.87-.83-2.38-.3-.51-.7-.77-1.18-.77-.39,0-.86.18-1.42.55-.55.37-1.19.92-1.9,1.65-.07-.73-.25-1.64-.55-2.71-.3-1.07-.7-2.42-1.19-4.03Zm27.63-23.8c-1.07,0-2.76,1.4-5.06,4.21-2.3,2.81-3.57,4.87-3.8,6.19-.05.29-.03.5.07.62.1.12.34.18.74.18.54,0,1.03-.28,1.47-.84.44-.56.85-1.09,1.23-1.57.62-.49,1.24-1.01,1.85-1.57.61-.56,1.21-1.11,1.79-1.65.71-.68,1.27-1.37,1.68-2.05.41-.68.68-1.37.8-2.05.08-.44.05-.79-.07-1.06-.12-.27-.36-.4-.7-.4Z" fill="#821f1b"/><path d="m471.93,116.29L502.19,3.56c.48-1.78-1.15-3.4-2.93-2.93l-112.73,30.25c-2.4.64-2.35,4.08.07,4.63,19.51,4.44,37.42,14.29,51.91,28.78,14.5,14.5,24.34,32.41,28.78,51.92.55,2.42,3.98,2.47,4.63.07Z" fill="#2f3a7c" stroke="#222221" stroke-miterlimit="10" stroke-width="1.11"/><path d="m252.59,166.91l-30.25,112.73c-.48,1.78,1.15,3.4,2.93,2.93l112.73-30.25c2.4-.64,2.35-4.08-.07-4.63-19.51-4.44-37.42-14.29-51.91-28.78-14.5-14.5-24.34-32.41-28.78-51.92-.55-2.42-3.98-2.47-4.63-.07Z" fill="#2f3a7c" stroke="#222221" stroke-miterlimit="10" stroke-width="1.11"/><path d="m334.79,141.23c6.53,4.38,14.15,7.25,22.36,8.1.03,0,.07,0,.1.01.71.07,1.43.12,2.16.16.14,0,.27.02.41.03.81.04,1.62.06,2.44.06s1.63-.02,2.44-.06c.14,0,.27-.02.41-.03.72-.04,1.44-.09,2.16-.16.03,0,.07,0,.1-.01,8.22-.85,15.84-3.72,22.37-8.1,9.4-6.59,15.4-16.48,15.4-27.52,0-19.78-19.23-35.88-42.87-35.88s-42.87,16.1-42.87,35.88c0,11.04,5.99,20.93,15.4,27.52Z" fill="#adb13a" stroke="#222221" stroke-miterlimit="10" stroke-width="1.11"/><path d="m446.47,87.75h0c-1.64-2.59-3.39-5.11-5.26-7.53-.03-.04-.06-.08-.09-.12-1.85-2.4-3.81-4.71-5.86-6.93-.05-.05-.1-.11-.15-.16-.67-.72-1.34-1.42-2.03-2.12-.01-.01-.02-.02-.03-.03-1.42-1.44-2.89-2.84-4.4-4.19-.05-.05-.11-.09-.16-.14-.69-.61-1.38-1.22-2.09-1.81-.08-.07-.16-.13-.24-.2-1.54-1.29-3.11-2.53-4.72-3.73-.03-.02-.05-.04-.08-.06-.75-.55-1.5-1.09-2.27-1.63-.13-.09-.25-.18-.38-.26-.73-.5-1.46-1-2.21-1.48-.08-.05-.15-.1-.23-.15-1.65-1.07-3.34-2.09-5.06-3.06-.15-.09-.31-.17-.46-.26-.71-.4-1.42-.78-2.13-1.16-.17-.09-.34-.18-.51-.27-1.73-.9-3.49-1.75-5.27-2.55-.16-.07-.32-.14-.47-.21-.73-.32-1.45-.63-2.19-.93-.23-.09-.46-.19-.69-.28-.73-.3-1.47-.58-2.21-.86-.17-.06-.34-.13-.51-.19-.92-.34-1.84-.67-2.77-.98-.1-.03-.2-.06-.3-.1-.81-.27-1.62-.53-2.44-.78-.26-.08-.52-.16-.78-.23-.7-.21-1.39-.4-2.1-.59-.26-.07-.51-.14-.77-.21-.9-.24-1.8-.46-2.71-.67-.04,0-.07-.02-.11-.03-.95-.22-1.9-.42-2.86-.62-.26-.05-.53-.1-.79-.15-.71-.14-1.41-.26-2.12-.38-.31-.05-.61-.1-.92-.15-.74-.12-1.49-.23-2.24-.33-.23-.03-.46-.07-.69-.1-.97-.13-1.94-.24-2.92-.34-.21-.02-.43-.04-.64-.06-.77-.07-1.55-.14-2.33-.19-.32-.02-.64-.04-.97-.06-.71-.04-1.42-.08-2.14-.1-.3-.01-.61-.03-.91-.03-1-.03-2-.05-3-.05s-2.01.02-3,.05c-.3,0-.61.02-.91.03-.71.03-1.43.06-2.14.1-.32.02-.65.04-.97.06-.78.05-1.55.12-2.33.19-.21.02-.43.04-.64.06-.98.1-1.95.21-2.93.34-.23.03-.46.06-.68.1-.75.1-1.5.21-2.24.33-.31.05-.61.1-.92.15-.71.12-1.42.25-2.12.38-.26.05-.53.1-.79.15-.96.19-1.91.4-2.86.61-.03,0-.07.02-.1.02-.91.21-1.82.44-2.72.68-.26.07-.52.14-.77.21-.7.19-1.4.39-2.09.59-.26.08-.52.15-.79.23-.81.25-1.62.5-2.43.77-.11.04-.21.07-.32.1-.93.31-1.85.64-2.77.98-.17.06-.33.13-.5.19-.74.28-1.48.57-2.22.86-.23.09-.46.19-.69.28-.73.3-1.46.61-2.18.93-.16.07-.33.14-.49.21-1.78.8-3.54,1.65-5.27,2.55-.17.09-.34.18-.51.27-.71.38-1.42.76-2.12,1.15-.16.09-.32.18-.48.27-1.71.97-3.4,1.99-5.05,3.06-.08.05-.15.1-.23.15-.74.48-1.47.98-2.2,1.48-.13.09-.26.18-.39.27-.76.53-1.5,1.06-2.24,1.61-.03.03-.07.05-.1.08-1.61,1.19-3.18,2.43-4.71,3.72-.08.07-.16.14-.25.21-.7.59-1.39,1.19-2.07,1.8-.06.05-.12.1-.17.16-1.5,1.35-2.97,2.74-4.39,4.18-.01.01-.02.02-.03.03-.68.69-1.36,1.4-2.02,2.11-.05.06-.11.11-.16.17-2.05,2.22-4.01,4.52-5.85,6.92-.03.04-.07.09-.1.13-.6.79-1.2,1.58-1.78,2.38,0,0-.01.02-.02.02-1.2,1.67-2.35,3.37-3.45,5.11-9.7,15.36-15.32,33.55-15.32,53.06,0,54.95,44.55,99.51,99.5,99.51-28.86,0-52.33-20.35-52.33-45.36h9.48c0,19.78,19.23,35.88,42.87,35.88s42.87-16.1,42.87-35.88-19.23-35.88-42.87-35.88c-.98,0-1.95-.03-2.91-.07-.19,0-.38-.03-.56-.04-.81-.05-1.62-.11-2.42-.19-.11-.01-.22-.03-.33-.04-8.98-.93-17.26-3.83-24.26-8.19-.02-.01-.04-.02-.06-.04-.41-.26-.82-.52-1.22-.78-16.3-10.49-27.12-28.77-27.12-49.55,0-32.47,26.42-58.89,58.89-58.89s58.89,26.42,58.89,58.89c0,20.78-10.83,39.06-27.12,49.55-.4.27-.81.53-1.22.78-.02.01-.04.02-.06.03-2.28,1.42-4.7,2.69-7.24,3.79,17.22,7.43,29.09,22.84,29.09,40.62,0,25.01-23.47,45.35-52.33,45.36,54.95,0,99.5-44.56,99.5-99.51,0-19.5-5.61-37.69-15.31-53.04Z" fill="#adb13a" stroke="#222221" stroke-miterlimit="10" stroke-width="1.11"/><path d="m411.64,98.69c-.79-26.56-22.63-47.93-49.38-47.93s-48.59,21.37-49.38,47.93c7.17-17.64,26.59-30.33,49.38-30.33s42.21,12.68,49.38,30.33Z" fill="#adb13a" stroke="#222221" stroke-miterlimit="10" stroke-width="1.11"/></svg>