<?xml version="1.0" standalone="no"?>
<!DOCTYPE svg PUBLIC "-//W3C//DTD SVG 20010904//EN"
 "http://www.w3.org/TR/2001/REC-SVG-20010904/DTD/svg10.dtd">
<svg version="1.0" xmlns="http://www.w3.org/2000/svg"
 width="1020.000000pt" height="1020.000000pt" viewBox="0 0 1020.000000 1020.000000"
 preserveAspectRatio="xMidYMid meet">
<metadata>
Created by potrace 1.14, written by Peter Selinger 2001-2017
</metadata>
<g transform="translate(0.000000,1020.000000) scale(0.100000,-0.100000)"
fill="#000000" stroke="none">
<path d="M9880 10173 c-98 -27 -82 -23 -225 -62 -60 -16 -171 -46 -245 -66
-74 -20 -142 -38 -150 -40 -8 -1 -40 -10 -71 -19 -31 -9 -65 -19 -75 -21 -11
-2 -62 -16 -114 -30 -52 -15 -102 -28 -110 -29 -8 -1 -22 -5 -30 -9 -8 -3 -26
-8 -40 -11 -14 -2 -82 -20 -151 -40 -69 -19 -141 -38 -159 -41 -18 -3 -37 -8
-42 -11 -8 -5 -43 -14 -68 -18 -9 -1 -20 -5 -26 -8 -6 -4 -21 -9 -35 -11 -13
-3 -48 -12 -77 -20 -29 -9 -54 -16 -57 -17 -3 0 -7 -1 -10 -1 -3 -1 -9 -3 -15
-4 -5 -1 -11 -3 -12 -5 -2 -1 -12 -3 -23 -5 -11 -2 -63 -15 -115 -30 -99 -27
-125 -34 -150 -40 -8 -2 -15 -4 -15 -5 0 -1 -7 -3 -15 -5 -8 -1 -35 -8 -60
-16 -25 -7 -49 -13 -55 -14 -5 -1 -12 -3 -15 -4 -5 -2 -15 -5 -55 -15 -11 -2
-81 -21 -155 -41 -74 -20 -139 -37 -145 -38 -5 -2 -16 -6 -22 -10 -7 -5 -13
-6 -13 -3 0 5 -87 -18 -120 -31 -8 -3 -24 -7 -35 -8 -11 -2 -87 -21 -170 -45
-124 -34 -223 -61 -425 -115 -8 -2 -42 -11 -75 -20 -33 -9 -100 -27 -150 -40
-49 -13 -124 -34 -165 -45 -41 -12 -85 -22 -97 -23 -13 0 -23 -4 -23 -7 0 -3
-27 -12 -61 -19 -61 -14 -84 -30 -109 -75 -19 -37 5 -104 48 -128 17 -9 32
-16 32 -14 0 2 39 -7 88 -21 48 -13 94 -25 102 -27 8 -2 29 -7 45 -11 17 -4
35 -10 40 -14 6 -3 15 -6 22 -7 25 -4 89 -27 101 -37 6 -5 12 -7 12 -4 0 15
358 -138 504 -215 50 -27 94 -48 98 -48 4 0 8 -4 8 -10 0 -5 5 -10 11 -10 11
0 210 -119 219 -131 3 -3 16 -12 29 -19 14 -7 30 -17 35 -21 25 -21 147 -109
151 -109 2 0 15 -10 27 -22 13 -13 39 -34 57 -48 19 -14 41 -32 51 -40 10 -8
44 -37 76 -65 65 -55 314 -300 314 -308 0 -3 15 -21 33 -39 42 -45 116 -132
136 -161 8 -12 17 -24 20 -27 4 -3 26 -32 51 -65 25 -33 49 -63 55 -67 7 -5 7
-8 0 -8 -6 0 -5 -4 1 -8 20 -13 202 -298 231 -362 3 -8 17 -32 30 -52 13 -21
23 -43 23 -50 0 -6 6 -19 13 -27 19 -23 127 -264 127 -284 0 -9 3 -17 8 -17 6
0 17 -27 36 -85 2 -5 6 -18 10 -27 4 -9 9 -22 10 -30 2 -7 6 -20 9 -28 32 -80
107 -348 107 -382 0 -10 5 -18 10 -18 6 0 10 -9 10 -20 0 -32 57 -62 105 -55
21 3 44 10 51 16 15 12 44 72 50 102 2 12 31 123 65 247 33 124 62 232 64 240
2 8 4 15 5 15 1 0 3 7 5 15 1 9 13 51 25 95 12 44 23 87 25 95 9 41 95 362
141 530 9 30 20 73 25 95 5 22 12 47 16 55 8 18 7 15 18 65 11 55 9 47 44 170
17 61 34 123 37 139 2 16 9 37 15 47 5 11 7 19 3 19 -3 0 -1 7 6 15 7 8 10 15
7 15 -3 0 0 20 7 45 8 25 12 45 9 45 -3 0 0 6 6 14 6 7 12 25 13 40 1 14 6 26
11 26 4 0 6 4 3 9 -3 4 -1 23 5 42 9 31 14 50 24 89 2 8 4 15 5 15 1 0 3 7 5
15 4 24 87 334 93 350 6 17 8 25 16 60 3 14 12 50 21 80 9 30 18 64 20 75 3
11 19 70 35 130 17 61 33 121 36 135 3 14 8 34 11 45 7 20 9 27 17 63 3 9 5
17 6 17 1 0 4 11 6 25 3 14 13 54 23 90 11 36 22 79 27 95 4 17 8 35 10 40 53
194 87 317 94 345 4 19 20 77 34 128 28 102 36 238 14 260 -21 21 -172 13
-268 -15z"/>
<path d="M4918 8744 c-2 -1 -46 -5 -98 -9 -112 -7 -141 -10 -195 -18 -22 -4
-56 -9 -75 -12 -19 -2 -44 -6 -55 -9 -11 -2 -40 -7 -65 -12 -25 -4 -47 -8 -50
-9 -3 -1 -25 -5 -50 -9 -25 -5 -49 -11 -54 -14 -6 -3 -19 -7 -30 -8 -27 -3
-201 -49 -213 -57 -5 -3 -20 -8 -34 -11 -29 -6 -206 -71 -304 -112 -158 -65
-534 -267 -557 -299 -5 -7 -8 -7 -8 0 0 6 -3 6 -8 -1 -4 -6 -36 -30 -72 -54
-36 -24 -67 -46 -70 -50 -3 -3 -21 -17 -40 -30 -42 -30 -67 -49 -92 -72 -10
-10 -22 -18 -27 -18 -5 0 -11 -3 -13 -7 -1 -5 -34 -35 -73 -67 -68 -58 -280
-267 -340 -336 -66 -75 -177 -214 -222 -278 -26 -37 -51 -71 -55 -77 -19 -24
-83 -126 -121 -190 -23 -38 -45 -73 -50 -76 -5 -3 -8 -8 -6 -10 3 -6 -43 -93
-53 -100 -5 -3 -9 -9 -8 -13 1 -4 -16 -44 -38 -89 -22 -45 -54 -116 -71 -157
-18 -41 -36 -84 -41 -95 -52 -125 -153 -470 -176 -605 -4 -25 -8 -47 -9 -50
-1 -3 -5 -27 -10 -55 -4 -27 -9 -59 -11 -70 -3 -11 -7 -40 -10 -65 -3 -25 -7
-61 -9 -80 -24 -189 -24 -579 -1 -780 3 -19 7 -57 10 -85 3 -27 8 -62 11 -77
3 -16 7 -40 10 -55 17 -107 41 -213 47 -213 4 0 5 -6 2 -13 -5 -15 62 -250
113 -391 56 -157 96 -250 183 -421 69 -135 91 -176 100 -185 3 -3 11 -15 17
-28 7 -12 19 -32 25 -45 7 -12 15 -24 19 -27 3 -3 16 -23 29 -45 13 -22 26
-42 30 -45 3 -3 18 -25 34 -49 16 -25 33 -50 38 -55 4 -6 38 -49 74 -96 36
-47 86 -110 112 -140 51 -60 318 -329 367 -370 17 -14 55 -45 85 -70 30 -25
57 -47 60 -50 42 -47 480 -330 510 -330 5 0 10 -3 12 -7 4 -11 299 -153 317
-153 4 0 25 -8 47 -19 53 -25 262 -97 338 -116 33 -9 68 -19 76 -22 8 -3 21
-7 29 -9 7 -1 34 -8 60 -14 25 -6 55 -12 66 -14 11 -3 41 -9 66 -15 25 -6 61
-13 80 -15 19 -3 43 -7 54 -9 11 -3 49 -8 85 -12 36 -4 74 -9 85 -11 86 -17
541 -28 550 -13 4 5 12 6 18 2 13 -8 97 -11 97 -3 0 3 15 5 33 6 39 1 164 12
192 18 23 4 109 17 141 21 11 2 45 8 75 14 30 6 65 13 78 16 140 27 458 128
626 200 119 51 242 110 260 125 7 6 14 8 17 5 3 -3 11 1 18 10 7 8 17 15 21
15 9 0 163 86 184 103 6 4 44 30 85 57 106 70 237 164 250 180 3 3 15 13 28
22 75 51 396 361 472 457 19 23 51 61 70 84 19 22 34 44 33 49 -2 4 1 8 6 8 6
0 31 30 58 68 26 37 50 69 53 72 35 31 227 359 300 515 83 175 90 191 90 208
0 9 3 17 8 19 4 2 18 35 30 73 13 39 27 79 32 90 24 59 39 105 35 105 -3 0 -1
8 4 18 10 19 57 189 66 242 3 18 7 36 9 39 2 3 7 22 10 41 3 19 7 44 10 55 9
48 19 112 22 140 1 17 3 30 4 30 2 0 4 9 5 20 1 11 5 43 8 70 15 119 21 242
21 405 0 204 -8 340 -30 490 -3 25 -8 59 -10 75 -2 17 -6 44 -9 60 -3 17 -7
41 -9 55 -3 14 -5 25 -6 25 -1 0 -3 9 -5 20 -2 16 -19 92 -49 216 -13 54 -54
188 -72 234 -4 11 -8 22 -9 25 -6 24 -30 87 -41 108 -8 15 -14 32 -14 38 0 33
-159 356 -248 504 -62 104 -153 245 -185 285 -4 6 -28 37 -53 69 -48 63 -95
121 -159 195 -56 65 -280 288 -340 338 -27 23 -61 52 -75 63 -14 12 -38 31
-53 43 -16 12 -43 33 -60 47 -18 14 -36 28 -42 33 -47 36 -185 129 -191 127
-4 -1 -10 3 -13 8 -7 12 -148 95 -256 152 -44 23 -84 45 -90 48 -5 4 -12 7
-15 7 -3 0 -36 15 -74 33 -175 84 -389 159 -616 217 -121 30 -153 37 -225 50
-11 2 -20 4 -20 5 0 1 -9 3 -20 5 -85 12 -114 16 -140 20 -16 2 -46 6 -65 9
-91 13 -202 19 -392 21 -114 1 -209 1 -210 -1z m357 -49 c78 -7 116 -11 160
-19 17 -3 44 -7 60 -10 197 -28 529 -160 723 -288 41 -26 78 -48 83 -48 5 0 9
-4 9 -8 0 -4 13 -16 30 -25 16 -10 35 -23 42 -30 7 -7 36 -30 63 -52 114 -91
283 -274 366 -395 24 -35 52 -73 62 -84 9 -11 17 -24 17 -29 0 -5 8 -21 18
-35 30 -44 92 -162 84 -162 -4 0 -2 -4 4 -8 11 -7 103 -226 109 -261 2 -9 4
-17 5 -18 2 -2 4 -7 5 -13 1 -5 4 -11 5 -12 1 -2 4 -12 5 -23 2 -11 10 -45 18
-75 9 -30 17 -68 20 -85 3 -16 8 -41 11 -55 8 -36 17 -106 21 -170 2 -30 4
-57 5 -60 5 -10 5 -280 0 -280 -3 0 -5 -19 -6 -43 -1 -43 -9 -117 -20 -172 -3
-16 -7 -41 -9 -55 -2 -14 -4 -25 -5 -25 -1 0 -3 -7 -5 -15 -2 -8 -6 -26 -9
-40 -3 -14 -7 -34 -10 -46 -9 -41 -78 -235 -103 -292 -15 -31 -27 -63 -29 -70
-1 -7 -7 -18 -12 -25 -6 -7 -29 -48 -52 -92 -23 -44 -46 -81 -51 -83 -5 -2 -9
-10 -9 -18 0 -8 -4 -14 -10 -14 -5 0 -10 -5 -10 -11 0 -12 -83 -132 -115 -165
-11 -12 -30 -35 -42 -50 -42 -57 -200 -211 -280 -274 -10 -8 -39 -32 -65 -52
-25 -21 -48 -34 -52 -31 -3 4 -6 1 -6 -5 0 -7 -7 -12 -16 -12 -8 0 -12 -4 -9
-10 3 -5 -1 -10 -9 -10 -8 0 -21 -6 -28 -13 -37 -35 -272 -160 -282 -150 -3 3
-6 2 -6 -4 0 -6 -11 -14 -25 -17 -37 -9 -30 -33 8 -27 4 0 7 -3 7 -7 0 -5 18
-15 40 -22 22 -7 40 -17 40 -22 0 -4 7 -8 15 -8 17 0 188 -99 193 -112 2 -4 9
-8 16 -8 7 0 21 -9 31 -20 10 -11 24 -20 31 -20 7 0 14 -3 16 -7 2 -5 30 -30
63 -57 74 -61 187 -174 240 -241 22 -27 45 -56 52 -63 7 -7 22 -30 34 -52 13
-22 26 -40 31 -40 4 0 8 -6 8 -14 0 -8 3 -16 8 -18 15 -6 112 -217 142 -309
30 -93 33 -106 45 -183 4 -21 9 -48 12 -60 8 -30 12 -329 5 -341 -3 -5 -7 -24
-8 -41 -1 -25 -11 -85 -19 -114 -1 -3 -5 -21 -9 -40 -26 -120 -120 -330 -201
-455 -74 -113 -262 -318 -353 -385 -19 -14 -39 -30 -45 -35 -69 -61 -398 -245
-439 -245 -9 0 -18 -3 -20 -8 -3 -6 -154 -57 -248 -82 -193 -53 -435 -72 -690
-57 -76 5 -265 33 -280 42 -3 2 -22 6 -43 9 -81 13 -265 77 -386 134 -321 151
-590 381 -758 646 -64 100 -163 320 -177 390 -2 6 -8 31 -15 55 -7 23 -10 49
-7 56 3 8 1 15 -5 17 -5 2 -10 29 -11 60 -2 32 -5 58 -8 58 -3 0 -7 27 -8 60
-1 41 2 60 11 61 94 6 287 2 288 -6 1 -5 3 -21 4 -35 12 -144 43 -272 91 -380
33 -76 119 -223 140 -241 8 -6 14 -16 14 -20 0 -18 147 -171 225 -235 111 -90
314 -214 351 -214 8 0 14 -5 14 -12 0 -6 3 -9 6 -5 4 3 23 -2 44 -13 21 -11
40 -16 44 -13 3 4 6 1 6 -5 0 -7 3 -11 8 -11 4 1 10 0 15 -1 4 -1 12 -4 17 -5
6 -1 12 -4 15 -5 3 -1 10 -4 15 -5 6 -1 11 -3 13 -5 1 -1 9 -3 17 -5 8 -1 43
-10 77 -19 157 -41 247 -51 458 -51 166 0 232 5 325 24 95 20 115 23 130 25 9
1 20 5 26 8 6 4 22 9 36 12 15 2 35 9 45 14 10 6 22 10 26 10 13 0 171 65 195
80 12 8 22 10 22 6 0 -5 4 -4 8 2 4 6 27 21 52 35 25 13 51 30 58 37 7 6 18
12 23 12 5 0 19 9 31 20 12 11 27 20 34 20 6 0 14 7 18 15 3 8 10 15 15 15 33
0 346 330 314 330 -5 0 -3 4 3 8 40 25 136 241 170 377 27 113 37 319 19 415
-3 19 -8 44 -9 55 -8 48 -28 119 -41 151 -8 19 -12 34 -9 34 8 0 -113 227
-142 267 -90 121 -173 207 -284 295 -109 85 -113 88 -127 88 -7 0 -13 4 -13 8
0 7 -221 125 -240 128 -3 0 -18 6 -33 12 -15 7 -40 15 -55 18 -15 4 -31 10
-37 14 -8 6 -59 21 -67 20 -2 0 -25 6 -53 14 -48 13 -139 31 -215 41 -19 3
-84 7 -145 10 -247 10 -440 26 -440 36 0 1 -13 3 -30 4 -16 1 -37 5 -45 8 -8
3 -37 11 -65 17 -75 16 -85 18 -124 32 -20 7 -38 12 -41 13 -21 2 -167 61
-172 69 -4 6 -8 7 -8 3 0 -9 -203 94 -208 106 -2 4 -8 7 -14 7 -11 0 -201 128
-233 157 -11 10 -41 34 -66 55 -55 44 -182 170 -235 234 -22 26 -46 54 -54 63
-8 10 -31 39 -49 67 -19 27 -38 51 -41 54 -5 4 -63 100 -107 175 -30 50 -88
178 -85 188 1 4 -3 7 -8 7 -6 0 -10 6 -10 14 0 12 -28 88 -51 141 -5 11 -10
29 -12 40 -1 11 -6 25 -9 31 -4 6 -10 24 -12 40 -3 16 -8 40 -12 54 -3 14 -7
34 -9 45 -2 11 -4 20 -5 20 -3 0 -11 42 -25 132 -4 23 -8 71 -10 105 -2 35 -5
63 -6 63 -6 0 -4 243 3 257 5 10 4 19 -2 23 -6 4 -7 11 -3 18 3 6 8 26 9 45 2
35 12 104 20 145 2 12 5 34 6 50 1 15 5 27 8 27 3 0 6 8 6 18 1 20 8 53 23
107 6 22 9 43 8 46 -1 3 3 12 9 20 9 11 23 49 28 79 3 15 51 127 59 138 5 6 7
12 4 12 -7 0 111 229 124 240 3 3 23 33 44 68 21 34 41 62 44 62 3 0 17 18 31
40 13 22 28 40 32 40 4 0 8 4 8 9 0 14 46 65 165 183 128 126 118 118 215 190
200 148 400 251 635 325 44 14 89 27 100 29 11 2 47 10 80 18 55 13 100 22
165 31 14 2 68 7 120 11 52 3 96 7 97 8 4 3 172 -3 238 -9z"/>
<path d="M5089 8406 c-2 -2 -47 -7 -99 -10 -52 -3 -106 -8 -120 -11 -14 -2
-52 -9 -85 -15 -33 -5 -69 -12 -80 -14 -62 -11 -235 -65 -249 -78 -6 -4 -16
-8 -23 -8 -13 0 -203 -89 -213 -100 -3 -3 -18 -12 -35 -20 -16 -8 -32 -17 -35
-20 -3 -3 -30 -22 -60 -42 -93 -64 -104 -72 -121 -90 -9 -10 -20 -18 -23 -18
-15 0 -215 -208 -265 -275 -29 -38 -58 -77 -66 -86 -26 -33 -117 -193 -151
-266 -68 -147 -118 -309 -140 -453 -3 -19 -7 -41 -9 -47 -2 -7 -7 -57 -10
-110 -3 -54 -8 -115 -10 -135 -7 -59 9 -45 45 40 35 85 115 238 131 252 3 3
19 25 36 50 189 278 524 526 886 654 53 19 98 35 100 34 1 0 22 6 47 13 52 15
45 13 90 22 19 4 46 9 60 12 14 3 41 8 60 10 19 3 46 7 60 10 82 16 348 27
356 14 2 -4 17 -4 33 1 16 4 31 7 33 5 2 -2 35 -6 73 -10 97 -9 111 -11 250
-39 60 -12 118 -28 185 -50 115 -38 149 -51 233 -90 42 -20 79 -35 81 -33 2 1
12 -5 22 -14 11 -8 40 -26 67 -40 26 -13 47 -27 47 -30 0 -4 14 -12 30 -19 17
-7 30 -16 30 -21 0 -5 5 -9 11 -9 28 0 241 -185 325 -283 55 -63 125 -158 162
-218 35 -58 58 -104 142 -284 l19 -40 -4 45 c-2 25 -6 94 -10 155 -3 60 -8
112 -10 115 -2 3 -6 26 -10 50 -3 25 -15 79 -26 120 -11 41 -24 91 -29 110
-17 68 -137 338 -160 360 -3 3 -12 18 -21 34 -77 136 -321 412 -426 481 -24
15 -43 32 -43 36 0 5 -4 9 -10 9 -5 0 -38 20 -73 45 -36 25 -69 45 -75 45 -6
0 -12 3 -14 8 -6 13 -196 102 -292 136 -162 58 -331 93 -501 102 -55 3 -102 7
-106 9 -3 3 -8 3 -10 1z"/>
<path d="M5036 7423 c-1 -1 -36 -5 -77 -8 -121 -8 -294 -35 -294 -45 0 -2 -20
-7 -59 -15 -16 -3 -44 -12 -62 -20 -19 -8 -34 -12 -34 -9 0 2 -13 -2 -30 -11
-16 -9 -30 -13 -30 -10 0 3 -17 -4 -37 -15 -21 -11 -43 -20 -50 -20 -6 0 -18
-6 -26 -14 -8 -8 -23 -16 -33 -18 -10 -2 -25 -9 -32 -16 -8 -7 -18 -10 -23 -7
-5 4 -9 2 -9 -3 0 -5 -13 -15 -30 -22 -16 -7 -30 -17 -30 -22 0 -5 -4 -7 -9
-3 -6 3 -14 -3 -20 -12 -6 -10 -11 -14 -11 -10 0 8 -17 -4 -77 -53 -7 -6 -14
-10 -17 -10 -21 0 -276 -257 -276 -278 0 -4 -11 -19 -25 -34 -14 -15 -25 -34
-25 -43 0 -8 -4 -15 -9 -15 -20 0 -130 -255 -146 -338 -2 -9 -4 -17 -5 -17 -1
0 -3 -9 -5 -20 -36 -230 -19 -447 50 -620 14 -34 25 -66 25 -71 0 -6 6 -16 13
-22 6 -7 12 -16 12 -20 0 -4 11 -25 24 -47 14 -22 30 -49 36 -60 29 -50 41
-70 50 -81 6 -6 33 -37 60 -69 102 -119 213 -212 360 -302 90 -55 304 -153
350 -160 17 -3 37 -9 46 -14 19 -10 82 -26 169 -43 14 -3 36 -8 50 -11 84 -19
424 -25 530 -10 30 5 63 8 73 9 9 0 17 3 17 6 0 3 8 6 18 6 9 1 33 4 52 8 19
4 41 8 48 8 6 1 12 5 12 10 0 5 4 7 8 4 17 -10 224 65 345 125 183 92 315 192
467 357 30 32 90 110 90 117 0 3 10 21 23 38 75 103 149 299 173 457 10 69 11
228 2 290 -5 30 -10 69 -13 85 -18 119 -84 275 -174 415 -63 97 -64 98 -164
200 -86 87 -150 145 -169 153 -7 3 -33 20 -58 38 -48 36 -134 86 -162 96 -10
3 -18 9 -18 14 0 5 -3 8 -7 7 -5 -1 -21 4 -38 12 -92 40 -118 50 -205 77 -52
17 -120 35 -150 41 -129 27 -112 24 -255 37 -80 7 -205 12 -209 8z"/>
<path d="M1156 4248 c-22 -17 -39 -51 -51 -104 -8 -38 -57 -219 -62 -234 -3
-8 -8 -23 -9 -32 -2 -9 -17 -65 -34 -125 -17 -59 -33 -121 -36 -137 -3 -16 -7
-32 -9 -35 -2 -5 -46 -163 -60 -221 -2 -8 -11 -40 -20 -70 -8 -30 -17 -68 -20
-84 -3 -16 -8 -32 -10 -36 -3 -4 -22 -74 -44 -156 -22 -82 -49 -185 -61 -229
-12 -44 -24 -89 -27 -100 -6 -26 -7 -31 -23 -85 -7 -25 -14 -49 -16 -55 -1 -5
-9 -37 -18 -70 -9 -33 -19 -71 -22 -85 -2 -14 -7 -32 -10 -40 -6 -15 -42 -151
-49 -181 -5 -25 -27 -102 -33 -119 -3 -8 -6 -22 -6 -30 -1 -8 -5 -21 -9 -27
-5 -7 -5 -17 -2 -23 3 -5 2 -10 -3 -10 -5 0 -9 -6 -9 -12 0 -7 -6 -33 -13 -58
-7 -25 -14 -54 -17 -65 -8 -38 -11 -50 -13 -50 -1 0 -3 -7 -5 -15 -2 -8 -9
-33 -15 -55 -6 -22 -12 -47 -14 -55 -2 -8 -10 -35 -17 -60 -7 -25 -13 -49 -15
-55 -1 -5 -9 -37 -18 -70 -9 -33 -19 -70 -22 -82 -2 -12 -9 -34 -14 -48 -5
-14 -8 -25 -5 -25 2 0 -2 -19 -11 -41 -8 -23 -16 -51 -19 -63 -11 -54 -14 -67
-19 -74 -3 -5 -7 -22 -10 -38 -3 -16 -19 -76 -35 -134 -16 -58 -44 -159 -61
-225 -18 -66 -45 -169 -61 -230 -16 -60 -31 -117 -34 -125 -2 -8 -15 -58 -29
-110 -28 -104 -35 -237 -14 -258 7 -7 42 -12 86 -12 75 0 101 6 542 125 74 20
142 38 150 40 8 2 55 15 105 29 49 14 91 23 93 21 3 -2 13 0 24 6 17 9 142 45
192 55 10 2 44 11 75 20 31 9 63 17 71 18 8 2 22 5 30 9 29 13 125 35 132 31
5 -3 8 0 8 7 0 7 2 10 5 7 3 -3 36 3 73 14 37 11 74 21 82 23 8 1 42 10 75 19
77 21 95 26 124 32 14 3 28 7 33 10 4 3 17 7 28 10 11 2 29 6 40 9 11 3 28 7
38 9 9 2 37 9 62 16 25 7 51 13 58 13 6 0 12 5 12 10 0 5 7 7 15 3 8 -3 15 -2
15 2 0 4 11 8 25 8 14 1 33 5 43 9 18 9 24 10 62 19 39 8 213 56 230 63 8 3
24 7 35 9 11 1 103 25 205 53 102 27 237 64 300 81 63 17 158 42 210 56 52 14
102 27 110 30 47 11 200 54 228 62 17 6 32 9 32 6 0 -3 8 0 18 5 11 6 31 12
46 15 16 3 87 22 159 42 73 20 139 38 147 39 8 2 15 4 15 5 0 1 7 3 15 5 30 6
106 27 135 37 75 26 94 127 34 179 -11 9 -52 25 -92 34 -40 9 -79 19 -87 22
-22 9 -22 9 -63 17 -20 5 -40 12 -43 17 -3 5 -9 7 -14 4 -5 -3 -23 1 -40 10
-16 8 -30 13 -30 9 0 -4 -7 0 -17 7 -9 8 -18 12 -20 10 -6 -6 -147 43 -151 52
-2 4 -10 7 -17 7 -22 0 -217 85 -350 153 -141 72 -356 198 -402 237 -7 5 -15
10 -18 10 -3 0 -11 4 -18 10 -53 43 -118 90 -126 90 -5 0 -11 4 -13 8 -1 4
-32 30 -68 57 -36 27 -74 59 -86 70 -12 11 -45 40 -75 65 -71 60 -291 280
-354 354 -27 32 -64 75 -82 95 -18 20 -42 53 -55 73 -13 21 -29 38 -36 38 -7
0 -11 4 -8 8 3 5 -5 19 -17 33 -13 13 -33 41 -46 62 -13 21 -28 43 -34 50 -14
14 -66 92 -82 122 -6 11 -30 50 -53 86 -23 36 -42 71 -42 77 0 6 -4 12 -9 14
-11 4 -194 376 -194 394 0 8 -5 14 -10 14 -6 0 -7 3 -4 6 3 4 1 16 -5 28 -13
23 -33 77 -74 196 -14 41 -28 82 -31 90 -8 20 -11 30 -18 62 -3 15 -10 40 -16
55 -6 16 -13 39 -15 53 -3 14 -7 33 -10 42 -3 9 -7 27 -10 40 -15 67 -31 96
-63 113 -38 19 -82 16 -115 -7z"/>
</g>
</svg>
